<?xml version="1.0" encoding="UTF-8" standalone="no"?>
<svg width="254px" height="376px" viewBox="0 0 254 376" version="1.1" xmlns="http://www.w3.org/2000/svg" xmlns:xlink="http://www.w3.org/1999/xlink" xmlns:sketch="http://www.bohemiancoding.com/sketch/ns">
    <!-- Generator: Sketch 3.3.3 (12081) - http://www.bohemiancoding.com/sketch -->
    <title>Marvin No Text</title>
    <desc>Created with Sketch.</desc>
    <defs>
        <circle id="path-1" cx="115.5" cy="39.5" r="4.5"></circle>
    </defs>
    <g id="Page-1" stroke="none" stroke-width="1" fill="none" fill-rule="evenodd" sketch:type="MSPage">
        <g id="Marvin-No-Text" sketch:type="MSLayerGroup">
            <rect id="longpartarm" fill="#D8D8D8" sketch:type="MSShapeGroup" x="238" y="269" width="16" height="107"></rect>
            <rect id="Rectangle-22" fill="#4A4A4A" sketch:type="MSShapeGroup" x="238" y="243" width="16" height="26"></rect>
            <rect id="Rectangle-20" fill="#D8D8D8" sketch:type="MSShapeGroup" x="238" y="206" width="16" height="37"></rect>
            <rect id="rotatorrightarm" fill="#4A4A4A" sketch:type="MSShapeGroup" x="216" y="201" width="22" height="54"></rect>
            <rect id="rotatorleftarm" fill="#4A4A4A" sketch:type="MSShapeGroup" x="16" y="201" width="22" height="54"></rect>
            <rect id="longpartarm-copy" fill="#D8D8D8" sketch:type="MSShapeGroup" x="0" y="269" width="16" height="107"></rect>
            <rect id="Rectangle-22-Copy" fill="#4A4A4A" sketch:type="MSShapeGroup" x="0" y="243" width="16" height="26"></rect>
            <rect id="Rectangle-20-Copy" fill="#D8D8D8" sketch:type="MSShapeGroup" x="0" y="206" width="16" height="37"></rect>
            <g id="head" transform="translate(49.000000, 0.000000)">
                <rect id="neck" fill="#4A4A4A" sketch:type="MSShapeGroup" x="42" y="183" width="68" height="10" rx="25"></rect>
                <rect id="rightear" fill="#4A4A4A" sketch:type="MSShapeGroup" x="141" y="14" width="10" height="93"></rect>
                <rect id="leftear" fill="#4A4A4A" sketch:type="MSShapeGroup" x="0" y="14" width="10" height="93"></rect>
                <rect fill="#D8D8D8" sketch:type="MSShapeGroup" x="10" y="0" width="131" height="183"></rect>
                <polygon id="leftsideeye" fill="#D0011B" sketch:type="MSShapeGroup" transform="translate(41.000000, 60.000000) rotate(-30.000000) translate(-41.000000, -60.000000) " points="41 51 58 69 24 69 "></polygon>
                <polygon id="rightsideeye" fill="#D0011B" sketch:type="MSShapeGroup" transform="translate(111.222432, 60.000000) scale(-1, 1) rotate(-30.000000) translate(-111.222432, -60.000000) " points="111.222432 51 128.222432 69 94.2224319 69 "></polygon>
                <rect id="Rectangle-4" fill="#9B9B9B" sketch:type="MSShapeGroup" x="10" y="0" width="131" height="32"></rect>
                <rect id="Rectangle-4-Copy" fill="#9B9B9B" sketch:type="MSShapeGroup" transform="translate(76.000000, 76.000000) rotate(-90.000000) translate(-76.000000, -76.000000) " x="24" y="60" width="104" height="32"></rect>
                <rect id="Rectangle-7" stroke="#979797" fill="#9B9B9B" sketch:type="MSShapeGroup" x="60" y="145" width="31" height="10"></rect>
                <rect id="Rectangle-8" fill="#9B9B9B" sketch:type="MSShapeGroup" x="26" y="168" width="101" height="10" rx="14"></rect>
                <circle id="Oval-1-Copy-4" stroke="#979797" fill="#D8D8D8" sketch:type="MSShapeGroup" cx="96.5" cy="123.5" r="4.5"></circle>
                <circle id="Oval-1-Copy-3" stroke="#979797" fill="#D8D8D8" sketch:type="MSShapeGroup" cx="55.5" cy="123.5" r="4.5"></circle>
                <g id="Oval-1-Copy-2" stroke="#979797">
                    <use fill="#D8D8D8" fill-rule="evenodd" sketch:type="MSShapeGroup" xlink:href="#path-1"></use>
                    <use fill="none" xlink:href="#path-1"></use>
                </g>
                <circle id="Oval-1-Copy" stroke="#979797" fill="#D8D8D8" sketch:type="MSShapeGroup" cx="36.5" cy="39.5" r="4.5"></circle>
            </g>
            <rect id="body" fill="#D8D8D8" sketch:type="MSShapeGroup" x="36" y="193" width="180" height="183"></rect>
            <rect id="orangechest" fill="#F6A623" sketch:type="MSShapeGroup" x="81" y="209" width="88" height="29"></rect>
            <g id="leftchestpiece-+-circleschestpiece" transform="translate(49.000000, 209.000000)" sketch:type="MSShapeGroup">
                <rect id="leftchestpiece" fill="#4A4A4A" x="0" y="0" width="16" height="107"></rect>
                <g id="circleschestpiece" transform="translate(3.000000, 1.000000)" stroke="#979797" fill="#D8D8D8">
                    <circle id="Oval-5-Copy-5" cx="5" cy="97" r="5"></circle>
                    <circle id="Oval-5-Copy-4" cx="5" cy="77" r="5"></circle>
                    <circle id="Oval-5-Copy-3" cx="5" cy="59" r="5"></circle>
                    <circle id="Oval-5-Copy-2" cx="5" cy="41" r="5"></circle>
                    <circle id="Oval-5-Copy" cx="5" cy="23" r="5"></circle>
                    <circle id="Oval-5" cx="5" cy="5" r="5"></circle>
                </g>
            </g>
            <g id="leftchestpiece-+-circleschestpiece-copy" transform="translate(184.000000, 209.000000)" sketch:type="MSShapeGroup">
                <rect id="leftchestpiece" fill="#4A4A4A" x="0" y="0" width="16" height="107"></rect>
                <g id="circleschestpiece" transform="translate(3.000000, 1.000000)" stroke="#979797" fill="#D8D8D8">
                    <circle id="Oval-5-Copy-5" cx="5" cy="97" r="5"></circle>
                    <circle id="Oval-5-Copy-4" cx="5" cy="77" r="5"></circle>
                    <circle id="Oval-5-Copy-3" cx="5" cy="59" r="5"></circle>
                    <circle id="Oval-5-Copy-2" cx="5" cy="41" r="5"></circle>
                    <circle id="Oval-5-Copy" cx="5" cy="23" r="5"></circle>
                    <circle id="Oval-5" cx="5" cy="5" r="5"></circle>
                </g>
            </g>
            <g id="tryagainbutton-+-Try-Again-Copy" transform="translate(81.000000, 255.000000)" fill="#4A4A4A" sketch:type="MSShapeGroup">
                <rect id="tryagainbutton" x="0" y="0" width="88" height="29"></rect>
            </g>
            <g id="hintbutton-+-Hint" transform="translate(81.000000, 302.000000)" fill="#4A4A4A" sketch:type="MSShapeGroup">
                <rect id="hintbutton" x="0" y="0" width="88" height="29"></rect>
            </g>
        </g>
    </g>
</svg>